<svg width="37" height="37" viewBox="0 0 37 37" fill="none" xmlns="http://www.w3.org/2000/svg">
<path d="M25.2294 6.35938H32.1669C31.4722 12.9987 28.3414 19.145 23.3794 23.6106C18.3774 28.1056 11.8818 30.5786 5.15689 30.5481H3.37627V24.05L9.25002 22.015L11.1925 25.2987L12.5569 27.75L15.0313 26.3162C19.4615 23.7447 23.2369 20.1831 26.0619 15.91L27.75 13.2506L24.9288 11.7706L22.6163 10.5681L25.1369 6.35938M25.1369 3.46875C24.6382 3.47248 24.1488 3.60414 23.7156 3.85112C23.2824 4.09811 22.9198 4.45215 22.6625 4.87937L20.2344 9.08813C20.0284 9.42451 19.8941 9.79977 19.8397 10.1904C19.7854 10.5811 19.8123 10.9788 19.9186 11.3586C20.025 11.7384 20.2085 12.0922 20.4578 12.3979C20.7071 12.7035 21.0168 12.9545 21.3675 13.135L23.68 14.3375C21.0984 18.2358 17.647 21.4814 13.5975 23.8188L11.5625 20.5581C11.3244 20.1477 10.9888 19.8022 10.5855 19.5522C10.1822 19.3021 9.72354 19.1552 9.25002 19.1244C8.92704 19.1237 8.60634 19.1784 8.30189 19.2863L2.31252 21.3213C1.76712 21.537 1.30027 21.9136 0.973968 22.401C0.647665 22.8884 0.47735 23.4635 0.48564 24.05V30.6406C0.48564 31.4073 0.790188 32.1425 1.33228 32.6846C1.87438 33.2267 2.60962 33.5312 3.37627 33.5312H5.11064C12.5326 33.5332 19.6929 30.7896 25.2131 25.8286C30.7334 20.8677 34.2234 14.04 35.0113 6.66C35.0499 6.25664 35.0039 5.84965 34.8763 5.46506C34.7487 5.08046 34.5423 4.7267 34.2703 4.42638C33.9983 4.12606 33.6666 3.88578 33.2964 3.72089C32.9263 3.556 32.5258 3.47012 32.1206 3.46875H25.1369Z" fill="white"/>
</svg>
