<svg width="39" height="34" viewBox="0 0 39 34" fill="none" xmlns="http://www.w3.org/2000/svg">
<path d="M10.25 33.1932H28.75" stroke="white" stroke-width="1.5" stroke-linecap="round" stroke-linejoin="round"/>
<path d="M1 25.1449V4.21933C1 3.36551 1.38982 2.54666 2.0837 1.94292C2.77759 1.33918 3.7187 1 4.7 1H34.3C35.2813 1 36.2224 1.33918 36.9163 1.94292C37.6102 2.54666 38 3.36551 38 4.21933V25.1449C38 25.9988 37.6102 26.8176 36.9163 27.4213C36.2224 28.0251 35.2813 28.3643 34.3 28.3643H4.7C3.7187 28.3643 2.77759 28.0251 2.0837 27.4213C1.38982 26.8176 1 25.9988 1 25.1449Z" stroke="white" stroke-width="1.5"/>
<path d="M13.95 14.6821L17.65 17.9014L25.05 11.4628" stroke="white" stroke-width="1.5" stroke-linecap="round" stroke-linejoin="round"/>
</svg>
