<svg width="37" height="30" viewBox="0 0 37 30" fill="none" xmlns="http://www.w3.org/2000/svg">
<path d="M18.5 16.0966C17.7991 16.0966 17.1269 16.3389 16.6312 16.7701C16.1356 17.2014 15.8571 17.7863 15.8571 18.3961C15.8571 19.006 16.1356 19.5909 16.6312 20.0221C17.1269 20.4534 17.7991 20.6957 18.5 20.6957C19.2009 20.6957 19.8731 20.4534 20.3688 20.0221C20.8644 19.5909 21.1429 19.006 21.1429 18.3961C21.1429 17.7863 20.8644 17.2014 20.3688 16.7701C19.8731 16.3389 19.2009 16.0966 18.5 16.0966ZM10.5714 18.3961C10.5714 16.5665 11.4068 14.8119 12.8937 13.5181C14.3805 12.2244 16.3972 11.4976 18.5 11.4976C20.6028 11.4976 22.6195 12.2244 24.1063 13.5181C25.5932 14.8119 26.4286 16.5665 26.4286 18.3961C26.4286 20.2258 25.5932 21.9804 24.1063 23.2742C22.6195 24.5679 20.6028 25.2947 18.5 25.2947C16.3972 25.2947 14.3805 24.5679 12.8937 23.2742C11.4068 21.9804 10.5714 20.2258 10.5714 18.3961ZM18.5 13.7971C17.0981 13.7971 15.7537 14.2816 14.7624 15.1441C13.7712 16.0066 13.2143 17.1764 13.2143 18.3961C13.2143 19.6159 13.7712 20.7857 14.7624 21.6482C15.7537 22.5106 17.0981 22.9952 18.5 22.9952C19.9019 22.9952 21.2463 22.5106 22.2376 21.6482C23.2288 20.7857 23.7857 19.6159 23.7857 18.3961C23.7857 17.1764 23.2288 16.0066 22.2376 15.1441C21.2463 14.2816 19.9019 13.7971 18.5 13.7971ZM5.45054e-07 3.44928C5.45054e-07 2.53447 0.417665 1.65713 1.16111 1.01027C1.90456 0.363405 2.91289 0 3.96429 0H33.0357C34.0871 0 35.0954 0.363405 35.8389 1.01027C36.5823 1.65713 37 2.53447 37 3.44928V5.74879C37.0004 6.46239 36.7465 7.15855 36.2731 7.74131C35.7998 8.32407 35.1304 8.76475 34.3571 9.00261V16.0966C34.3571 19.7558 32.6865 23.2652 29.7127 25.8527C26.7389 28.4401 22.7056 29.8937 18.5 29.8937C14.2944 29.8937 10.2611 28.4401 7.28731 25.8527C4.31352 23.2652 2.64286 19.7558 2.64286 16.0966V9.00261C1.86962 8.76475 1.2002 8.32407 0.72686 7.74131C0.253523 7.15855 -0.000429412 6.46239 5.45054e-07 5.74879V3.44928ZM3.96429 6.89855H33.0357C33.3862 6.89855 33.7223 6.77742 33.9701 6.5618C34.2179 6.34618 34.3571 6.05373 34.3571 5.74879V3.44928C34.3571 3.14434 34.2179 2.8519 33.9701 2.63627C33.7223 2.42065 33.3862 2.29952 33.0357 2.29952H3.96429C3.61382 2.29952 3.27771 2.42065 3.0299 2.63627C2.78208 2.8519 2.64286 3.14434 2.64286 3.44928V5.74879C2.64286 6.05373 2.78208 6.34618 3.0299 6.5618C3.27771 6.77742 3.61382 6.89855 3.96429 6.89855ZM5.28571 9.19807V16.0966C5.28571 19.146 6.67793 22.0704 9.15609 24.2266C11.6342 26.3829 14.9954 27.5942 18.5 27.5942C22.0046 27.5942 25.3658 26.3829 27.8439 24.2266C30.3221 22.0704 31.7143 19.146 31.7143 16.0966V9.19807H5.28571Z" fill="white"/>
</svg>
