<svg width="33" height="33" viewBox="0 0 33 33" fill="none" xmlns="http://www.w3.org/2000/svg">
<g clip-path="url(#clip0_17_98)">
<path d="M16.5 0C18.0146 0 19.4756 0.193359 20.8828 0.580078C22.29 0.966797 23.606 1.52002 24.8306 2.23975C26.0552 2.95947 27.167 3.81885 28.166 4.81787C29.165 5.81689 30.0244 6.93408 30.7441 8.16943C31.4639 9.40479 32.0171 10.7207 32.4038 12.1172C32.7905 13.5137 32.9893 14.9746 33 16.5C33 18.0146 32.8066 19.4756 32.4199 20.8828C32.0332 22.29 31.48 23.606 30.7603 24.8306C30.0405 26.0552 29.1812 27.167 28.1821 28.166C27.1831 29.165 26.0659 30.0244 24.8306 30.7441C23.5952 31.4639 22.2793 32.0171 20.8828 32.4038C19.4863 32.7905 18.0254 32.9893 16.5 33C14.9854 33 13.5244 32.8066 12.1172 32.4199C10.71 32.0332 9.39404 31.48 8.16943 30.7603C6.94482 30.0405 5.83301 29.1812 4.83398 28.1821C3.83496 27.1831 2.97559 26.0659 2.25586 24.8306C1.53613 23.5952 0.98291 22.2847 0.596191 20.8989C0.209473 19.5132 0.0107422 18.0469 0 16.5C0 14.9854 0.193359 13.5244 0.580078 12.1172C0.966797 10.71 1.52002 9.39404 2.23975 8.16943C2.95947 6.94482 3.81885 5.83301 4.81787 4.83398C5.81689 3.83496 6.93408 2.97559 8.16943 2.25586C9.40479 1.53613 10.7153 0.98291 12.1011 0.596191C13.4868 0.209473 14.9531 0.0107422 16.5 0ZM16.5 30.9375C17.8213 30.9375 19.0942 30.7656 20.3188 30.4219C21.5435 30.0781 22.6929 29.5947 23.7671 28.9717C24.8413 28.3486 25.8188 27.5913 26.6997 26.6997C27.5806 25.8081 28.3325 24.8359 28.9556 23.7832C29.5786 22.7305 30.0674 21.5811 30.4219 20.335C30.7764 19.0889 30.9482 17.8105 30.9375 16.5C30.9375 15.1787 30.7656 13.9058 30.4219 12.6812C30.0781 11.4565 29.5947 10.3071 28.9717 9.23291C28.3486 8.15869 27.5913 7.18115 26.6997 6.30029C25.8081 5.41943 24.8359 4.66748 23.7832 4.04443C22.7305 3.42139 21.5811 2.93262 20.335 2.57812C19.0889 2.22363 17.8105 2.05176 16.5 2.0625C15.1787 2.0625 13.9058 2.23438 12.6812 2.57812C11.4565 2.92188 10.3071 3.40527 9.23291 4.02832C8.15869 4.65137 7.18115 5.40869 6.30029 6.30029C5.41943 7.19189 4.66748 8.16406 4.04443 9.2168C3.42139 10.2695 2.93262 11.4189 2.57812 12.665C2.22363 13.9111 2.05176 15.1895 2.0625 16.5C2.0625 17.8213 2.23438 19.0942 2.57812 20.3188C2.92188 21.5435 3.40527 22.6929 4.02832 23.7671C4.65137 24.8413 5.40869 25.8188 6.30029 26.6997C7.19189 27.5806 8.16406 28.3325 9.2168 28.9556C10.2695 29.5786 11.4189 30.0674 12.665 30.4219C13.9111 30.7764 15.1895 30.9482 16.5 30.9375ZM26.1196 16.7578L26.8931 14.4375H28.1016L26.7319 18.5625H25.5234L24.75 16.2422L23.9766 18.5625H22.7681L21.3984 14.4375H22.6069L23.3804 16.7578L24.1538 14.4375H25.3462L26.1196 16.7578ZM18.6431 14.4375H19.8516L18.4819 18.5625H17.2734L16.5 16.2422L15.7266 18.5625H14.5181L13.1484 14.4375H14.3569L15.1304 16.7578L15.9038 14.4375H17.0962L17.8696 16.7578L18.6431 14.4375ZM10.3931 14.4375H11.6016L10.2319 18.5625H9.02344L8.25 16.2422L7.47656 18.5625H6.26807L4.89844 14.4375H6.10693L6.88037 16.7578L7.65381 14.4375H8.84619L9.61963 16.7578L10.3931 14.4375Z" fill="white"/>
</g>
<defs>
<clipPath id="clip0_17_98">
<rect width="33" height="33" fill="white"/>
</clipPath>
</defs>
</svg>
