<svg width="37" height="29" viewBox="0 0 37 29" fill="none" xmlns="http://www.w3.org/2000/svg">
<path d="M31.45 8.04831C34.521 8.04831 37 10.2053 37 12.8773V22.5353H29.6V28.9739H7.4V22.5353H0V12.8773C0 10.2053 2.479 8.04831 5.55 8.04831H7.4V0H29.6V8.04831H31.45ZM11.1 3.21932V8.04831H25.9V3.21932H11.1ZM25.9 25.7546V19.3159H11.1V25.7546H25.9ZM29.6 19.3159H33.3V12.8773C33.3 11.992 32.4675 11.2676 31.45 11.2676H5.55C4.5325 11.2676 3.7 11.992 3.7 12.8773V19.3159H7.4V16.0966H29.6V19.3159ZM31.45 13.6821C31.45 14.5674 30.6175 15.2918 29.6 15.2918C28.5825 15.2918 27.75 14.5674 27.75 13.6821C27.75 12.7968 28.5825 12.0725 29.6 12.0725C30.6175 12.0725 31.45 12.7968 31.45 13.6821Z" fill="white"/>
</svg>
