<svg width="32" height="28" viewBox="0 0 32 28" fill="none" xmlns="http://www.w3.org/2000/svg">
<path d="M14 1.74018C14 1.27865 14.2107 0.836032 14.5858 0.509686C14.9609 0.18334 15.4696 0 16 0C16.5305 0 17.0392 0.18334 17.4142 0.509686C17.7893 0.836032 18 1.27865 18 1.74018V14.1964L24.486 8.55296L27.314 11.0136L16 20.8577L4.68604 11.0153L7.51404 8.5547L14 14.1964V1.74018Z" fill="white"/>
<path d="M0 17.4019H4V24.3626H28V17.4019H32V24.3626C32 25.2856 31.5786 26.1708 30.8284 26.8235C30.0783 27.4762 29.0609 27.8429 28 27.8429H4C2.93913 27.8429 1.92172 27.4762 1.17157 26.8235C0.421427 26.1708 0 25.2856 0 24.3626V17.4019Z" fill="white"/>
</svg>
