<svg width="37" height="37" viewBox="0 0 37 37" fill="none" xmlns="http://www.w3.org/2000/svg">
<path d="M16.5729 10.0209C16.2663 10.0209 15.9722 10.1427 15.7553 10.3595C15.5385 10.5764 15.4167 10.8705 15.4167 11.1771C15.4167 11.4838 15.5385 11.7779 15.7553 11.9947C15.9722 12.2116 16.2663 12.3334 16.5729 12.3334H26.5938C26.9004 12.3334 27.1945 12.2116 27.4113 11.9947C27.6282 11.7779 27.75 11.4838 27.75 11.1771C27.75 10.8705 27.6282 10.5764 27.4113 10.3595C27.1945 10.1427 26.9004 10.0209 26.5938 10.0209H16.5729ZM9.25 11.1771C9.25 10.8705 9.37182 10.5764 9.58866 10.3595C9.8055 10.1427 10.0996 10.0209 10.4062 10.0209H11.1771C11.4837 10.0209 11.7778 10.1427 11.9947 10.3595C12.2115 10.5764 12.3333 10.8705 12.3333 11.1771C12.3333 11.4838 12.2115 11.7779 11.9947 11.9947C11.7778 12.2116 11.4837 12.3334 11.1771 12.3334H10.4062C10.0996 12.3334 9.8055 12.2116 9.58866 11.9947C9.37182 11.7779 9.25 11.4838 9.25 11.1771ZM15.4167 25.0521C15.4167 24.7455 15.5385 24.4514 15.7553 24.2345C15.9722 24.0177 16.2663 23.8959 16.5729 23.8959H26.5938C26.9004 23.8959 27.1945 24.0177 27.4113 24.2345C27.6282 24.4514 27.75 24.7455 27.75 25.0521C27.75 25.3588 27.6282 25.6529 27.4113 25.8697C27.1945 26.0866 26.9004 26.2084 26.5938 26.2084H16.5729C16.2663 26.2084 15.9722 26.0866 15.7553 25.8697C15.5385 25.6529 15.4167 25.3588 15.4167 25.0521ZM10.4062 23.8959C10.0996 23.8959 9.8055 24.0177 9.58866 24.2345C9.37182 24.4514 9.25 24.7455 9.25 25.0521C9.25 25.3588 9.37182 25.6529 9.58866 25.8697C9.8055 26.0866 10.0996 26.2084 10.4062 26.2084H11.1771C11.4837 26.2084 11.7778 26.0866 11.9947 25.8697C12.2115 25.6529 12.3333 25.3588 12.3333 25.0521C12.3333 24.7455 12.2115 24.4514 11.9947 24.2345C11.7778 24.0177 11.4837 23.8959 11.1771 23.8959H10.4062Z" fill="white"/>
<path d="M5.01042 3.08337H31.9896C33.4788 3.08337 34.6875 4.29204 34.6875 5.78129V16.573C34.6875 17.1465 34.5087 17.6768 34.2034 18.1146C34.5087 18.5525 34.6875 19.0828 34.6875 19.6563V30.448C34.6875 31.1635 34.4033 31.8497 33.8973 32.3557C33.3913 32.8616 32.7051 33.1459 31.9896 33.1459H5.01042C4.29489 33.1459 3.60866 32.8616 3.1027 32.3557C2.59675 31.8497 2.3125 31.1635 2.3125 30.448V19.6563C2.3125 19.1044 2.48054 18.5663 2.79659 18.1146C2.48069 17.6627 2.31167 17.1244 2.3125 16.573V5.78129C2.3125 4.29204 3.52117 3.08337 5.01042 3.08337ZM5.01042 19.2709C4.9082 19.2709 4.81017 19.3115 4.73789 19.3838C4.66561 19.456 4.625 19.5541 4.625 19.6563V30.448C4.625 30.6607 4.79767 30.8334 5.01042 30.8334H31.9896C32.0918 30.8334 32.1898 30.7928 32.2621 30.7205C32.3344 30.6482 32.375 30.5502 32.375 30.448V19.6563C32.375 19.5541 32.3344 19.456 32.2621 19.3838C32.1898 19.3115 32.0918 19.2709 31.9896 19.2709H5.01042ZM5.01042 16.9584H31.9896C32.0918 16.9584 32.1898 16.9178 32.2621 16.8455C32.3344 16.7732 32.375 16.6752 32.375 16.573V5.78129C32.375 5.67907 32.3344 5.58104 32.2621 5.50876C32.1898 5.43648 32.0918 5.39587 31.9896 5.39587H5.01042C4.9082 5.39587 4.81017 5.43648 4.73789 5.50876C4.66561 5.58104 4.625 5.67907 4.625 5.78129V16.573C4.625 16.7857 4.79767 16.9584 5.01042 16.9584Z" fill="white"/>
</svg>
