<svg width="33" height="33" viewBox="0 0 33 33" fill="none" xmlns="http://www.w3.org/2000/svg">
<path d="M24.75 11C27.0282 11 28.875 9.15317 28.875 6.875C28.875 4.59683 27.0282 2.75 24.75 2.75C22.4718 2.75 20.625 4.59683 20.625 6.875C20.625 9.15317 22.4718 11 24.75 11Z" stroke="white" stroke-width="2"/>
<path d="M24.75 30.25C27.0282 30.25 28.875 28.4032 28.875 26.125C28.875 23.8468 27.0282 22 24.75 22C22.4718 22 20.625 23.8468 20.625 26.125C20.625 28.4032 22.4718 30.25 24.75 30.25Z" stroke="white" stroke-width="2"/>
<path d="M8.25 20.625C10.5282 20.625 12.375 18.7782 12.375 16.5C12.375 14.2218 10.5282 12.375 8.25 12.375C5.97183 12.375 4.125 14.2218 4.125 16.5C4.125 18.7782 5.97183 20.625 8.25 20.625Z" stroke="white" stroke-width="2"/>
<path d="M21.186 8.95398L11.8168 14.4196M21.186 24.046L11.8168 18.5804" stroke="white" stroke-width="2" stroke-linecap="round" stroke-linejoin="round"/>
</svg>
